<svg version="1.2" xmlns="http://www.w3.org/2000/svg" viewBox="0 0 902 495" width="902" height="495">
	<title>Cion 2022_logo-ai-COLOUR</title>
	<style>
		.s0 { fill: #e02625 } 
		.s1 { fill: #323740 } 
	</style>
	<g id="Layer 1">
		<path id="&lt;Compound Path&gt;" class="s0" d="m240.9 284h-12.4q-3.9-39.6-21.8-64.7q-17.8-25.3-59.2-25.7q-29.8 0-47.6 11.7q-17.8 12.2-27.5 32.5q-9.3 20.6-12.5 45.4q-3.4 25.7-3.4 52.6q-0.4 22.2 2.4 46.7q2.6 24.9 10.7 46.6q8.1 21.2 25.6 35q17 14.4 45.3 14.4q42.6-0.9 64.2-30.7q21.1-29.1 23.4-69.4h12.4v82.8q-53.2 29.8-101.1 29.8q-66.3-1-101.1-44q-35.3-42.8-35.3-111.2q0.4-68.3 38.4-111.1q37.5-42.8 103.7-43.7q50 0.9 95.8 23.9z" />
		<path id="&lt;Compound Path&gt;" class="s0" d="m324.6 290.8h-34.8v-10.2h76v195h34.8v10.2h-110.8v-10.2h34.8zm-3.5-75.6q0-10.9 7.2-18q6.7-7.2 17-7.2q10 0 16.9 7.2q6.7 7.1 7.1 18q-0.4 10.4-7.1 17.6q-6.9 7.5-16.9 7.5q-10.3 0-17-7.5q-7.2-7.2-7.2-17.6z" />
		<path id="&lt;Compound Path&gt;" fill-rule="evenodd" class="s0" d="m434.8 383.2q0-16.8 4.8-35.2q5-18.1 15.6-34.9q10.9-16.8 29.3-27.2q18.6-10.5 45.5-10.5q27.4 0 46.1 10.5q18.4 10.4 29.2 27.2q10.9 16.8 15.7 34.8q4.2 18.4 4.2 35.2q0 16-4.2 34.4q-4.8 18.4-15.7 35.2q-10.8 16.4-29.2 26.9q-18.7 11-46.1 11.4q-26.9-0.4-45.5-11.4q-18.4-10.5-29.3-26.8q-10.6-16.8-15.6-35.2q-4.8-18.4-4.8-34.4zm47.5 0q0 16.5 1.1 33.3q1.2 17.3 5.3 32.1q4.4 13.8 14.5 23q9.7 9.3 26.9 9.2q17.7 0.1 27.7-9.2q10-9.2 14.1-23q4.7-14.8 5.5-32.1q0.4-16.8 0.4-33.3q0-17.2-0.4-34.5q-0.8-16.9-5.5-31.1q-4.1-14.7-14.1-23.6q-10-8.4-27.7-8.4q-17.2 0-26.9 8.4q-10.1 8.9-14.5 23.6q-4.1 14.2-5.3 31.1q-1.1 17.2-1.1 34.5z" />
		<path id="&lt;Compound Path&gt;" class="s0" d="m695.8 475.6v-184.8h-34.8v-10.2h75.9v39.1h0.8q19.4-43.8 70.2-44.2q59.6-0.8 59.6 59.2v140.9h32v10.2h-105.2v-10.2h32v-139.1q0.4-18.4-5.1-32.4q-3.8-6.5-9.8-10.4q-6.5-3.3-17.4-3.3q-28.3 0.8-42.4 23q-14.7 22.3-14.7 52.9v109.3h32.2v10.2h-108.1v-10.2z" />
		<g id="&lt;Group&gt;">
			<path id="&lt;Path&gt;" class="s1" d="m415.3 162.7c-0.6-1 0-1.6 0.9-2.3l1-0.8c68-53.9 240.5-145 297.6-157.1h0.2h0.1c53.1 3.2 83.2 13.8 117.2 31l0.9 0.4c0.8 0.4 2 0.6 1.8 1.7c-0.1 1-0.9 0.8-2.2 1.1l-0.9 0.2c-106.7 22.1-311.4 84.2-413.2 125.4l-1 0.4c-0.9 0.4-1.8 0.9-2.4 0z" />
			<path id="&lt;Path&gt;" class="s1" d="m512.2 183c-0.3-1.1 0.9-1.5 1.8-1.7l1.2-0.3l267.6-64.3l0.4-0.1l0.3 0.1c29.8 9.7 68.5 34.2 86.6 48.4l0.7 0.6c0.7 0.6 1.8 0.9 1.5 1.9c-0.5 1.2-1.3 0.8-2.4 0.8h-0.9l-353.4 15.5l-1.2 0.1c-0.9 0-2 0.1-2.2-1z" />
		</g>
	</g>
</svg>